# xmcd
#
# Track frame offsets: 
#        150
#        14356
#        29626
#        61114
#        94771
#
# Disc length: 1760 seconds
#
# Revision: 1
# Processed by: cddbd v1.5.2PL0 Copyright (c) Steve Scherf et al.
# Submitted via: ExactAudioCopy v1.0b2
#
DISCID=3706de05
DTITLE=Coast 2 Coast feat. Discovery - Home
DYEAR=2001
DGENRE=Trance
TTITLE0=Home (Radio Edit)
TTITLE1=Home (5am Radio Edit)
TTITLE2=Home (Tiesto Remix)
TTITLE3=Home (Cequenza Remix)
TTITLE4=Home (5am Remix)
EXTD=
EXTT0=
EXTT1=
EXTT2=
EXTT3=
EXTT4=
PLAYORDER=
